<?xml version="1.0" encoding="UTF-8" standalone="no"?>
<svg
   xmlns:dc="http://purl.org/dc/elements/1.1/"
   xmlns:cc="http://creativecommons.org/ns#"
   xmlns:rdf="http://www.w3.org/1999/02/22-rdf-syntax-ns#"
   xmlns:svg="http://www.w3.org/2000/svg"
   xmlns="http://www.w3.org/2000/svg"
   xmlns:sodipodi="http://sodipodi.sourceforge.net/DTD/sodipodi-0.dtd"
   xmlns:inkscape="http://www.inkscape.org/namespaces/inkscape"
   version="1.1"
   id="svg2"
   xml:space="preserve"
   width="272"
   height="374.66666"
   viewBox="0 0 272 374.66666"
   sodipodi:docname="e3.svg"
   inkscape:version="1.0.2 (e86c870879, 2021-01-15)"><metadata
     id="metadata8"><rdf:RDF><cc:Work
         rdf:about=""><dc:format>image/svg+xml</dc:format><dc:type
           rdf:resource="http://purl.org/dc/dcmitype/StillImage" /><dc:title></dc:title></cc:Work></rdf:RDF></metadata><defs
     id="defs6" /><sodipodi:namedview
     pagecolor="#ffffff"
     bordercolor="#666666"
     borderopacity="1"
     objecttolerance="10"
     gridtolerance="10"
     guidetolerance="10"
     inkscape:pageopacity="0"
     inkscape:pageshadow="2"
     inkscape:window-width="1596"
     inkscape:window-height="878"
     id="namedview4"
     showgrid="false"
     inkscape:zoom="1.7802492"
     inkscape:cx="45.282361"
     inkscape:cy="187.33333"
     inkscape:window-x="2"
     inkscape:window-y="20"
     inkscape:window-maximized="0"
     inkscape:current-layer="g10" /><g
     id="g10"
     inkscape:groupmode="layer"
     inkscape:label="ink_ext_XXXXXX"
     transform="matrix(1.3333333,0,0,-1.3333333,0,374.66667)"><g
       id="g12"
       transform="scale(0.1)"><path
         d="m 720,2224.8 h 288"
         style="fill:none;stroke:#000000;stroke-width:7.2;stroke-linecap:square;stroke-linejoin:miter;stroke-miterlimit:10;stroke-dasharray:none;stroke-opacity:1"
         id="path14" /><path
         d="m 864,2008.8 144,216"
         style="fill:none;stroke:#000000;stroke-width:7.2;stroke-linecap:square;stroke-linejoin:miter;stroke-miterlimit:10;stroke-dasharray:none;stroke-opacity:1"
         id="path16" /><path
         d="m 720,2224.8 144,-216"
         style="fill:none;stroke:#000000;stroke-width:7.2;stroke-linecap:square;stroke-linejoin:miter;stroke-miterlimit:10;stroke-dasharray:none;stroke-opacity:1"
         id="path18" /><path
         d="m 720,2008.8 h 288"
         style="fill:none;stroke:#000000;stroke-width:7.2;stroke-linecap:square;stroke-linejoin:miter;stroke-miterlimit:10;stroke-dasharray:none;stroke-opacity:1"
         id="path20" /><path
         d="m 864,2296.8 v 144"
         style="fill:none;stroke:#000000;stroke-width:7.2;stroke-linecap:square;stroke-linejoin:miter;stroke-miterlimit:10;stroke-dasharray:none;stroke-opacity:1"
         id="path22" /><path
         d="m 864,1936.8 v -144"
         style="fill:none;stroke:#000000;stroke-width:7.2;stroke-linecap:square;stroke-linejoin:miter;stroke-miterlimit:10;stroke-dasharray:none;stroke-opacity:1"
         id="path24" /><path
         d="m 864,2008.8 v -72"
         style="fill:none;stroke:#000000;stroke-width:7.2;stroke-linecap:square;stroke-linejoin:miter;stroke-miterlimit:10;stroke-dasharray:none;stroke-opacity:1"
         id="path26" /><path
         d="m 864,2296.8 v -72"
         style="fill:none;stroke:#000000;stroke-width:7.2;stroke-linecap:square;stroke-linejoin:miter;stroke-miterlimit:10;stroke-dasharray:none;stroke-opacity:1"
         id="path28" /><g
         id="g30"
         transform="scale(10)"><text
           transform="matrix(1,0,0,-1,100.8,208.08)"
           style="font-variant:normal;font-weight:normal;font-size:13px;font-family:Helvetica;-inkscape-font-specification:Helvetica;writing-mode:lr-tb;fill:#000000;fill-opacity:1;fill-rule:nonzero;stroke:none"
           id="text34"><tspan
             x="0 9.3859997"
             y="0"
             sodipodi:role="line"
             id="tspan32">D1</tspan></text></g><path
         d="m 144,784.801 v 144"
         style="fill:none;stroke:#000000;stroke-width:7.2;stroke-linecap:square;stroke-linejoin:miter;stroke-miterlimit:10;stroke-dasharray:none;stroke-opacity:1"
         id="path36" /><path
         d="m 144,424.801 v -144"
         style="fill:none;stroke:#000000;stroke-width:7.2;stroke-linecap:square;stroke-linejoin:miter;stroke-miterlimit:10;stroke-dasharray:none;stroke-opacity:1"
         id="path38" /><path
         d="m 144,568.801 72,72"
         style="fill:none;stroke:#000000;stroke-width:7.2;stroke-linecap:square;stroke-linejoin:miter;stroke-miterlimit:10;stroke-dasharray:none;stroke-opacity:1"
         id="path40" /><path
         d="m 72,640.801 72,-72"
         style="fill:none;stroke:#000000;stroke-width:7.2;stroke-linecap:square;stroke-linejoin:miter;stroke-miterlimit:10;stroke-dasharray:none;stroke-opacity:1"
         id="path42" /><path
         d="M 72,640.801 H 216"
         style="fill:none;stroke:#000000;stroke-width:7.2;stroke-linecap:square;stroke-linejoin:miter;stroke-miterlimit:10;stroke-dasharray:none;stroke-opacity:1"
         id="path44" /><path
         d="M 72,568.801 H 216"
         style="fill:none;stroke:#000000;stroke-width:7.2;stroke-linecap:square;stroke-linejoin:miter;stroke-miterlimit:10;stroke-dasharray:none;stroke-opacity:1"
         id="path46" /><path
         d="m 144,424.801 v 144"
         style="fill:none;stroke:#000000;stroke-width:7.2;stroke-linecap:square;stroke-linejoin:miter;stroke-miterlimit:10;stroke-dasharray:none;stroke-opacity:1"
         id="path48" /><path
         d="m 144,784.801 v -144"
         style="fill:none;stroke:#000000;stroke-width:7.2;stroke-linecap:square;stroke-linejoin:miter;stroke-miterlimit:10;stroke-dasharray:none;stroke-opacity:1"
         id="path50" /><path
         d="m 288,604.801 c 0,79.527 -64.473,144 -144,144 -79.5273,0 -144,-64.473 -144,-144 0,-79.528 64.4727,-144 144,-144 79.527,0 144,64.472 144,144"
         style="fill:none;stroke:#000000;stroke-width:7.2;stroke-linecap:square;stroke-linejoin:miter;stroke-miterlimit:10;stroke-dasharray:none;stroke-opacity:1"
         id="path52" /><path
         d="M 434.879,484.559 362.16,557.281"
         style="fill:none;stroke:#000000;stroke-width:7.2;stroke-linecap:square;stroke-linejoin:miter;stroke-miterlimit:10;stroke-dasharray:none;stroke-opacity:1"
         id="path54" /><path
         d="m 399.598,481.68 35.281,2.879"
         style="fill:none;stroke:#000000;stroke-width:7.2;stroke-linecap:square;stroke-linejoin:miter;stroke-miterlimit:10;stroke-dasharray:none;stroke-opacity:1"
         id="path56" /><path
         d="M 473.039,408.961 399.598,481.68"
         style="fill:none;stroke:#000000;stroke-width:7.2;stroke-linecap:square;stroke-linejoin:miter;stroke-miterlimit:10;stroke-dasharray:none;stroke-opacity:1"
         id="path58" /><path
         d="m 372.957,507.598 -72,72.722"
         style="fill:none;stroke:#000000;stroke-width:7.2;stroke-linecap:square;stroke-linejoin:miter;stroke-miterlimit:10;stroke-dasharray:none;stroke-opacity:1"
         id="path60" /><path
         d="m 337.68,504.719 35.277,2.879"
         style="fill:none;stroke:#000000;stroke-width:7.2;stroke-linecap:square;stroke-linejoin:miter;stroke-miterlimit:10;stroke-dasharray:none;stroke-opacity:1"
         id="path62" /><path
         d="M 410.398,432 337.68,504.719"
         style="fill:none;stroke:#000000;stroke-width:7.2;stroke-linecap:square;stroke-linejoin:miter;stroke-miterlimit:10;stroke-dasharray:none;stroke-opacity:1"
         id="path64" /><g
         id="g66"
         transform="scale(10)"><text
           transform="matrix(0,-1,-1,0,18,87.8621)"
           style="font-variant:normal;font-weight:normal;font-size:10.4px;font-family:Helvetica;-inkscape-font-specification:Helvetica;writing-mode:lr-tb;fill:#000000;fill-opacity:1;fill-rule:nonzero;stroke:none"
           id="text70"><tspan
             x="0 48.982025"
             y="0"
             sodipodi:role="line"
             id="tspan68">12</tspan></text><text
           transform="matrix(1,0,0,-1,28.8,71.2801)"
           style="font-variant:normal;font-weight:normal;font-size:13px;font-family:Helvetica;-inkscape-font-specification:Helvetica;writing-mode:lr-tb;fill:#000000;fill-opacity:1;fill-rule:nonzero;stroke:none"
           id="text74"><tspan
             x="0 7.2280002 15.899 25.285"
             y="0"
             sodipodi:role="line"
             id="tspan72">LED1</tspan></text></g><path
         d="m 216,1432.8 -144,72"
         style="fill:none;stroke:#000000;stroke-width:7.2;stroke-linecap:square;stroke-linejoin:miter;stroke-miterlimit:10;stroke-dasharray:none;stroke-opacity:1"
         id="path76" /><path
         d="m 72,1360.8 144,72"
         style="fill:none;stroke:#000000;stroke-width:7.2;stroke-linecap:square;stroke-linejoin:miter;stroke-miterlimit:10;stroke-dasharray:none;stroke-opacity:1"
         id="path78" /><path
         d="m 216,1288.8 -144,72"
         style="fill:none;stroke:#000000;stroke-width:7.2;stroke-linecap:square;stroke-linejoin:miter;stroke-miterlimit:10;stroke-dasharray:none;stroke-opacity:1"
         id="path80" /><path
         d="m 72,1216.8 144,72"
         style="fill:none;stroke:#000000;stroke-width:7.2;stroke-linecap:square;stroke-linejoin:miter;stroke-miterlimit:10;stroke-dasharray:none;stroke-opacity:1"
         id="path82" /><path
         d="m 216,1576.8 -144,-72"
         style="fill:none;stroke:#000000;stroke-width:7.2;stroke-linecap:square;stroke-linejoin:miter;stroke-miterlimit:10;stroke-dasharray:none;stroke-opacity:1"
         id="path84" /><path
         d="m 144,1612.8 72,-36"
         style="fill:none;stroke:#000000;stroke-width:7.2;stroke-linecap:square;stroke-linejoin:miter;stroke-miterlimit:10;stroke-dasharray:none;stroke-opacity:1"
         id="path86" /><path
         d="m 144,1612.8 v 108"
         style="fill:none;stroke:#000000;stroke-width:7.2;stroke-linecap:square;stroke-linejoin:miter;stroke-miterlimit:10;stroke-dasharray:none;stroke-opacity:1"
         id="path88" /><path
         d="M 144,1182.24 V 1072.8"
         style="fill:none;stroke:#000000;stroke-width:7.2;stroke-linecap:square;stroke-linejoin:miter;stroke-miterlimit:10;stroke-dasharray:none;stroke-opacity:1"
         id="path90" /><path
         d="m 144,1180.8 -72,36.72"
         style="fill:none;stroke:#000000;stroke-width:7.2;stroke-linecap:square;stroke-linejoin:miter;stroke-miterlimit:10;stroke-dasharray:none;stroke-opacity:1"
         id="path92" /><g
         id="g94"
         transform="scale(10)"><text
           transform="matrix(1,0,0,-1,26.5863,133.81)"
           style="font-variant:normal;font-weight:normal;font-size:13px;font-family:Helvetica;-inkscape-font-specification:Helvetica;writing-mode:lr-tb;fill:#000000;fill-opacity:1;fill-rule:nonzero;stroke:none"
           id="text98"><tspan
             x="0 9.3859997"
             y="0"
             sodipodi:role="line"
             id="tspan96">R1</tspan></text></g><path
         d="m 864,2656.8 v -144"
         style="fill:none;stroke:#000000;stroke-width:7.2;stroke-linecap:square;stroke-linejoin:miter;stroke-miterlimit:10;stroke-dasharray:none;stroke-opacity:1"
         id="path100" /><path
         d="M 972,2656.8 H 756"
         style="fill:none;stroke:#000000;stroke-width:7.2;stroke-linecap:square;stroke-linejoin:miter;stroke-miterlimit:10;stroke-dasharray:none;stroke-opacity:1"
         id="path102" /><g
         id="g104"
         transform="scale(10)"><text
           transform="matrix(1,0,0,-1,75.5648,269.28)"
           style="font-variant:normal;font-weight:normal;font-size:13px;font-family:Helvetica;-inkscape-font-specification:Helvetica;writing-mode:lr-tb;fill:#000000;fill-opacity:1;fill-rule:nonzero;stroke:none"
           id="text108"><tspan
             x="0 8.6709995 15.171"
             y="0"
             sodipodi:role="line"
             id="tspan106">Vcc</tspan></text></g><path
         d="M 864,208.801 V 64.8008"
         style="fill:none;stroke:#000000;stroke-width:7.2;stroke-linecap:square;stroke-linejoin:miter;stroke-miterlimit:10;stroke-dasharray:none;stroke-opacity:1"
         id="path110" /><path
         d="M 936,64.8008 H 792"
         style="fill:none;stroke:#000000;stroke-width:7.2;stroke-linecap:square;stroke-linejoin:miter;stroke-miterlimit:10;stroke-dasharray:none;stroke-opacity:1"
         id="path112" /><path
         d="m 896.398,28.8008 h -64.8"
         style="fill:none;stroke:#000000;stroke-width:7.2;stroke-linecap:square;stroke-linejoin:miter;stroke-miterlimit:10;stroke-dasharray:none;stroke-opacity:1"
         id="path114" /><path
         d="m 878.398,0 h -28.8"
         style="fill:none;stroke:#000000;stroke-width:7.2;stroke-linecap:square;stroke-linejoin:miter;stroke-miterlimit:10;stroke-dasharray:none;stroke-opacity:1"
         id="path116" /><path
         d="M 144,928.801 V 1072.8"
         style="fill:none;stroke:#000000;stroke-width:7.2;stroke-linecap:square;stroke-linejoin:miter;stroke-miterlimit:10;stroke-dasharray:none;stroke-opacity:1"
         id="path118" /><path
         d="m 864,784.801 v 144"
         style="fill:none;stroke:#000000;stroke-width:7.2;stroke-linecap:square;stroke-linejoin:miter;stroke-miterlimit:10;stroke-dasharray:none;stroke-opacity:1"
         id="path120" /><path
         d="m 864,424.801 v -144"
         style="fill:none;stroke:#000000;stroke-width:7.2;stroke-linecap:square;stroke-linejoin:miter;stroke-miterlimit:10;stroke-dasharray:none;stroke-opacity:1"
         id="path122" /><path
         d="m 864,568.801 72,72"
         style="fill:none;stroke:#000000;stroke-width:7.2;stroke-linecap:square;stroke-linejoin:miter;stroke-miterlimit:10;stroke-dasharray:none;stroke-opacity:1"
         id="path124" /><path
         d="m 792,640.801 72,-72"
         style="fill:none;stroke:#000000;stroke-width:7.2;stroke-linecap:square;stroke-linejoin:miter;stroke-miterlimit:10;stroke-dasharray:none;stroke-opacity:1"
         id="path126" /><path
         d="M 792,640.801 H 936"
         style="fill:none;stroke:#000000;stroke-width:7.2;stroke-linecap:square;stroke-linejoin:miter;stroke-miterlimit:10;stroke-dasharray:none;stroke-opacity:1"
         id="path128" /><path
         d="M 792,568.801 H 936"
         style="fill:none;stroke:#000000;stroke-width:7.2;stroke-linecap:square;stroke-linejoin:miter;stroke-miterlimit:10;stroke-dasharray:none;stroke-opacity:1"
         id="path130" /><path
         d="m 864,424.801 v 144"
         style="fill:none;stroke:#000000;stroke-width:7.2;stroke-linecap:square;stroke-linejoin:miter;stroke-miterlimit:10;stroke-dasharray:none;stroke-opacity:1"
         id="path132" /><path
         d="m 864,784.801 v -144"
         style="fill:none;stroke:#000000;stroke-width:7.2;stroke-linecap:square;stroke-linejoin:miter;stroke-miterlimit:10;stroke-dasharray:none;stroke-opacity:1"
         id="path134" /><path
         d="m 1008,604.801 c 0,79.527 -64.473,144 -144,144 -79.527,0 -144,-64.473 -144,-144 0,-79.528 64.473,-144 144,-144 79.527,0 144,64.472 144,144"
         style="fill:none;stroke:#000000;stroke-width:7.2;stroke-linecap:square;stroke-linejoin:miter;stroke-miterlimit:10;stroke-dasharray:none;stroke-opacity:1"
         id="path136" /><path
         d="m 1154.88,484.559 -72.72,72.722"
         style="fill:none;stroke:#000000;stroke-width:7.2;stroke-linecap:square;stroke-linejoin:miter;stroke-miterlimit:10;stroke-dasharray:none;stroke-opacity:1"
         id="path138" /><path
         d="m 1119.6,481.68 35.28,2.879"
         style="fill:none;stroke:#000000;stroke-width:7.2;stroke-linecap:square;stroke-linejoin:miter;stroke-miterlimit:10;stroke-dasharray:none;stroke-opacity:1"
         id="path140" /><path
         d="M 1193.04,408.961 1119.6,481.68"
         style="fill:none;stroke:#000000;stroke-width:7.2;stroke-linecap:square;stroke-linejoin:miter;stroke-miterlimit:10;stroke-dasharray:none;stroke-opacity:1"
         id="path142" /><path
         d="m 1092.96,507.598 -72,72.722"
         style="fill:none;stroke:#000000;stroke-width:7.2;stroke-linecap:square;stroke-linejoin:miter;stroke-miterlimit:10;stroke-dasharray:none;stroke-opacity:1"
         id="path144" /><path
         d="m 1057.68,504.719 35.28,2.879"
         style="fill:none;stroke:#000000;stroke-width:7.2;stroke-linecap:square;stroke-linejoin:miter;stroke-miterlimit:10;stroke-dasharray:none;stroke-opacity:1"
         id="path146" /><path
         d="m 1130.4,432 -72.72,72.719"
         style="fill:none;stroke:#000000;stroke-width:7.2;stroke-linecap:square;stroke-linejoin:miter;stroke-miterlimit:10;stroke-dasharray:none;stroke-opacity:1"
         id="path148" /><g
         id="g150"
         transform="scale(10)"><text
           transform="matrix(0,-1,-1,0,90,87.8621)"
           style="font-variant:normal;font-weight:normal;font-size:10.4px;font-family:Helvetica;-inkscape-font-specification:Helvetica;writing-mode:lr-tb;fill:#000000;fill-opacity:1;fill-rule:nonzero;stroke:none"
           id="text154"><tspan
             x="0 48.982025"
             y="0"
             sodipodi:role="line"
             id="tspan152">12</tspan></text></g><path
         d="m 882,280.801 c 0,9.937 -8.062,18 -18,18 -9.937,0 -18,-8.063 -18,-18 0,-9.938 8.063,-18 18,-18 9.938,0 18,8.062 18,18"
         style="fill:#000000;fill-opacity:1;fill-rule:nonzero;stroke:none"
         id="path156" /><path
         d="m 882,280.801 c 0,9.937 -8.062,18 -18,18 -9.937,0 -18,-8.063 -18,-18 0,-9.938 8.063,-18 18,-18 9.938,0 18,8.062 18,18"
         style="fill:#000000;fill-opacity:1;fill-rule:nonzero;stroke:none"
         id="path158" /><path
         d="m 936,1432.8 -144,72"
         style="fill:none;stroke:#000000;stroke-width:7.2;stroke-linecap:square;stroke-linejoin:miter;stroke-miterlimit:10;stroke-dasharray:none;stroke-opacity:1"
         id="path160" /><path
         d="m 792,1360.8 144,72"
         style="fill:none;stroke:#000000;stroke-width:7.2;stroke-linecap:square;stroke-linejoin:miter;stroke-miterlimit:10;stroke-dasharray:none;stroke-opacity:1"
         id="path162" /><path
         d="m 936,1288.8 -144,72"
         style="fill:none;stroke:#000000;stroke-width:7.2;stroke-linecap:square;stroke-linejoin:miter;stroke-miterlimit:10;stroke-dasharray:none;stroke-opacity:1"
         id="path164" /><path
         d="m 792,1216.8 144,72"
         style="fill:none;stroke:#000000;stroke-width:7.2;stroke-linecap:square;stroke-linejoin:miter;stroke-miterlimit:10;stroke-dasharray:none;stroke-opacity:1"
         id="path166" /><path
         d="m 936,1576.8 -144,-72"
         style="fill:none;stroke:#000000;stroke-width:7.2;stroke-linecap:square;stroke-linejoin:miter;stroke-miterlimit:10;stroke-dasharray:none;stroke-opacity:1"
         id="path168" /><path
         d="m 864,1612.8 72,-36"
         style="fill:none;stroke:#000000;stroke-width:7.2;stroke-linecap:square;stroke-linejoin:miter;stroke-miterlimit:10;stroke-dasharray:none;stroke-opacity:1"
         id="path170" /><path
         d="m 864,1612.8 v 108"
         style="fill:none;stroke:#000000;stroke-width:7.2;stroke-linecap:square;stroke-linejoin:miter;stroke-miterlimit:10;stroke-dasharray:none;stroke-opacity:1"
         id="path172" /><path
         d="M 864,1182.24 V 1072.8"
         style="fill:none;stroke:#000000;stroke-width:7.2;stroke-linecap:square;stroke-linejoin:miter;stroke-miterlimit:10;stroke-dasharray:none;stroke-opacity:1"
         id="path174" /><path
         d="m 864,1180.8 -72,36.72"
         style="fill:none;stroke:#000000;stroke-width:7.2;stroke-linecap:square;stroke-linejoin:miter;stroke-miterlimit:10;stroke-dasharray:none;stroke-opacity:1"
         id="path176" /><path
         d="m 882,1720.8 c 0,9.94 -8.062,18 -18,18 -9.937,0 -18,-8.06 -18,-18 0,-9.94 8.063,-18 18,-18 9.938,0 18,8.06 18,18"
         style="fill:#000000;fill-opacity:1;fill-rule:nonzero;stroke:none"
         id="path178" /><path
         d="m 882,1720.8 c 0,9.94 -8.062,18 -18,18 -9.937,0 -18,-8.06 -18,-18 0,-9.94 8.063,-18 18,-18 9.938,0 18,8.06 18,18"
         style="fill:#000000;fill-opacity:1;fill-rule:nonzero;stroke:none"
         id="path180" /><path
         d="M 864,928.801 V 1072.8"
         style="fill:none;stroke:#000000;stroke-width:7.2;stroke-linecap:square;stroke-linejoin:miter;stroke-miterlimit:10;stroke-dasharray:none;stroke-opacity:1"
         id="path182" /><g
         id="g184"
         transform="scale(10)"><text
           transform="matrix(1,0,0,-1,100.8,71.2801)"
           style="font-variant:normal;font-weight:normal;font-size:13px;font-family:Helvetica;-inkscape-font-specification:Helvetica;writing-mode:lr-tb;fill:#000000;fill-opacity:1;fill-rule:nonzero;stroke:none"
           id="text190"><tspan
             x="0 7.2280002 15.899 25.285"
             y="0"
             sodipodi:role="line"
             id="tspan186">LED2</tspan><tspan
             x="-2.21367 7.1723299"
             y="-62.529701"
             sodipodi:role="line"
             id="tspan188">R2</tspan></text></g><path
         d="m 1584,784.801 v 144"
         style="fill:none;stroke:#000000;stroke-width:7.2;stroke-linecap:square;stroke-linejoin:miter;stroke-miterlimit:10;stroke-dasharray:none;stroke-opacity:1"
         id="path192" /><path
         d="m 1584,424.801 v -144"
         style="fill:none;stroke:#000000;stroke-width:7.2;stroke-linecap:square;stroke-linejoin:miter;stroke-miterlimit:10;stroke-dasharray:none;stroke-opacity:1"
         id="path194" /><path
         d="m 1584,568.801 72,72"
         style="fill:none;stroke:#000000;stroke-width:7.2;stroke-linecap:square;stroke-linejoin:miter;stroke-miterlimit:10;stroke-dasharray:none;stroke-opacity:1"
         id="path196" /><path
         d="m 1512,640.801 72,-72"
         style="fill:none;stroke:#000000;stroke-width:7.2;stroke-linecap:square;stroke-linejoin:miter;stroke-miterlimit:10;stroke-dasharray:none;stroke-opacity:1"
         id="path198" /><path
         d="m 1512,640.801 h 144"
         style="fill:none;stroke:#000000;stroke-width:7.2;stroke-linecap:square;stroke-linejoin:miter;stroke-miterlimit:10;stroke-dasharray:none;stroke-opacity:1"
         id="path200" /><path
         d="m 1512,568.801 h 144"
         style="fill:none;stroke:#000000;stroke-width:7.2;stroke-linecap:square;stroke-linejoin:miter;stroke-miterlimit:10;stroke-dasharray:none;stroke-opacity:1"
         id="path202" /><path
         d="m 1584,424.801 v 144"
         style="fill:none;stroke:#000000;stroke-width:7.2;stroke-linecap:square;stroke-linejoin:miter;stroke-miterlimit:10;stroke-dasharray:none;stroke-opacity:1"
         id="path204" /><path
         d="m 1584,784.801 v -144"
         style="fill:none;stroke:#000000;stroke-width:7.2;stroke-linecap:square;stroke-linejoin:miter;stroke-miterlimit:10;stroke-dasharray:none;stroke-opacity:1"
         id="path206" /><path
         d="m 1728,604.801 c 0,79.527 -64.47,144 -144,144 -79.53,0 -144,-64.473 -144,-144 0,-79.528 64.47,-144 144,-144 79.53,0 144,64.472 144,144"
         style="fill:none;stroke:#000000;stroke-width:7.2;stroke-linecap:square;stroke-linejoin:miter;stroke-miterlimit:10;stroke-dasharray:none;stroke-opacity:1"
         id="path208" /><path
         d="m 1874.88,484.559 -72.72,72.722"
         style="fill:none;stroke:#000000;stroke-width:7.2;stroke-linecap:square;stroke-linejoin:miter;stroke-miterlimit:10;stroke-dasharray:none;stroke-opacity:1"
         id="path210" /><path
         d="m 1839.6,481.68 35.28,2.879"
         style="fill:none;stroke:#000000;stroke-width:7.2;stroke-linecap:square;stroke-linejoin:miter;stroke-miterlimit:10;stroke-dasharray:none;stroke-opacity:1"
         id="path212" /><path
         d="M 1913.04,408.961 1839.6,481.68"
         style="fill:none;stroke:#000000;stroke-width:7.2;stroke-linecap:square;stroke-linejoin:miter;stroke-miterlimit:10;stroke-dasharray:none;stroke-opacity:1"
         id="path214" /><path
         d="m 1812.96,507.598 -72,72.722"
         style="fill:none;stroke:#000000;stroke-width:7.2;stroke-linecap:square;stroke-linejoin:miter;stroke-miterlimit:10;stroke-dasharray:none;stroke-opacity:1"
         id="path216" /><path
         d="m 1777.68,504.719 35.28,2.879"
         style="fill:none;stroke:#000000;stroke-width:7.2;stroke-linecap:square;stroke-linejoin:miter;stroke-miterlimit:10;stroke-dasharray:none;stroke-opacity:1"
         id="path218" /><path
         d="m 1850.4,432 -72.72,72.719"
         style="fill:none;stroke:#000000;stroke-width:7.2;stroke-linecap:square;stroke-linejoin:miter;stroke-miterlimit:10;stroke-dasharray:none;stroke-opacity:1"
         id="path220" /><g
         id="g222"
         transform="scale(10)"><text
           transform="matrix(0,-1,-1,0,162,87.8621)"
           style="font-variant:normal;font-weight:normal;font-size:10.4px;font-family:Helvetica;-inkscape-font-specification:Helvetica;writing-mode:lr-tb;fill:#000000;fill-opacity:1;fill-rule:nonzero;stroke:none"
           id="text226"><tspan
             x="0 48.982025"
             y="0"
             sodipodi:role="line"
             id="tspan224">12</tspan></text></g><path
         d="m 1656,1432.8 -144,72"
         style="fill:none;stroke:#000000;stroke-width:7.2;stroke-linecap:square;stroke-linejoin:miter;stroke-miterlimit:10;stroke-dasharray:none;stroke-opacity:1"
         id="path228" /><path
         d="m 1512,1360.8 144,72"
         style="fill:none;stroke:#000000;stroke-width:7.2;stroke-linecap:square;stroke-linejoin:miter;stroke-miterlimit:10;stroke-dasharray:none;stroke-opacity:1"
         id="path230" /><path
         d="m 1656,1288.8 -144,72"
         style="fill:none;stroke:#000000;stroke-width:7.2;stroke-linecap:square;stroke-linejoin:miter;stroke-miterlimit:10;stroke-dasharray:none;stroke-opacity:1"
         id="path232" /><path
         d="m 1512,1216.8 144,72"
         style="fill:none;stroke:#000000;stroke-width:7.2;stroke-linecap:square;stroke-linejoin:miter;stroke-miterlimit:10;stroke-dasharray:none;stroke-opacity:1"
         id="path234" /><path
         d="m 1656,1576.8 -144,-72"
         style="fill:none;stroke:#000000;stroke-width:7.2;stroke-linecap:square;stroke-linejoin:miter;stroke-miterlimit:10;stroke-dasharray:none;stroke-opacity:1"
         id="path236" /><path
         d="m 1584,1612.8 72,-36"
         style="fill:none;stroke:#000000;stroke-width:7.2;stroke-linecap:square;stroke-linejoin:miter;stroke-miterlimit:10;stroke-dasharray:none;stroke-opacity:1"
         id="path238" /><path
         d="m 1584,1612.8 v 108"
         style="fill:none;stroke:#000000;stroke-width:7.2;stroke-linecap:square;stroke-linejoin:miter;stroke-miterlimit:10;stroke-dasharray:none;stroke-opacity:1"
         id="path240" /><path
         d="M 1584,1182.24 V 1072.8"
         style="fill:none;stroke:#000000;stroke-width:7.2;stroke-linecap:square;stroke-linejoin:miter;stroke-miterlimit:10;stroke-dasharray:none;stroke-opacity:1"
         id="path242" /><path
         d="m 1584,1180.8 -72,36.72"
         style="fill:none;stroke:#000000;stroke-width:7.2;stroke-linecap:square;stroke-linejoin:miter;stroke-miterlimit:10;stroke-dasharray:none;stroke-opacity:1"
         id="path244" /><path
         d="M 1584,928.801 V 1072.8"
         style="fill:none;stroke:#000000;stroke-width:7.2;stroke-linecap:square;stroke-linejoin:miter;stroke-miterlimit:10;stroke-dasharray:none;stroke-opacity:1"
         id="path246" /><g
         id="g248"
         transform="scale(10)"><text
           transform="matrix(1,0,0,-1,172.8,71.2801)"
           style="font-variant:normal;font-weight:normal;font-size:13px;font-family:Helvetica;-inkscape-font-specification:Helvetica;writing-mode:lr-tb;fill:#000000;fill-opacity:1;fill-rule:nonzero;stroke:none"
           id="text254"><tspan
             x="0 7.2280002 15.899 25.285"
             y="0"
             sodipodi:role="line"
             id="tspan250">LED3</tspan><tspan
             x="-2.21367 7.1723299"
             y="-62.529701"
             sodipodi:role="line"
             id="tspan252">R3</tspan></text></g><path
         d="M 1584,280.801 H 144"
         style="fill:none;stroke:#000000;stroke-width:7.2;stroke-linecap:square;stroke-linejoin:miter;stroke-miterlimit:10;stroke-dasharray:none;stroke-opacity:1"
         id="path256" /><path
         d="m 864,208.801 v 72"
         style="fill:none;stroke:#000000;stroke-width:7.2;stroke-linecap:square;stroke-linejoin:miter;stroke-miterlimit:10;stroke-dasharray:none;stroke-opacity:1"
         id="path258" /><path
         d="m 864,2440.8 v 72"
         style="fill:none;stroke:#000000;stroke-width:7.2;stroke-linecap:square;stroke-linejoin:miter;stroke-miterlimit:10;stroke-dasharray:none;stroke-opacity:1"
         id="path260" /><path
         d="M 1584,1720.8 H 144"
         style="fill:none;stroke:#000000;stroke-width:7.2;stroke-linecap:square;stroke-linejoin:miter;stroke-miterlimit:10;stroke-dasharray:none;stroke-opacity:1"
         id="path262" /><path
         d="m 864,1720.8 v 72"
         style="fill:none;stroke:#000000;stroke-width:7.2;stroke-linecap:square;stroke-linejoin:miter;stroke-miterlimit:10;stroke-dasharray:none;stroke-opacity:1"
         id="path264" /><path
         d="m 882,280.801 c 0,9.937 -8.062,18 -18,18 -9.937,0 -18,-8.063 -18,-18 0,-9.938 8.063,-18 18,-18 9.938,0 18,8.062 18,18"
         style="fill:#000000;fill-opacity:1;fill-rule:nonzero;stroke:none"
         id="path266" /><path
         d="m 882,280.801 c 0,9.937 -8.062,18 -18,18 -9.937,0 -18,-8.063 -18,-18 0,-9.938 8.063,-18 18,-18 9.938,0 18,8.062 18,18"
         style="fill:#000000;fill-opacity:1;fill-rule:nonzero;stroke:none"
         id="path268" /><path
         d="m 882,1720.8 c 0,9.94 -8.062,18 -18,18 -9.937,0 -18,-8.06 -18,-18 0,-9.94 8.063,-18 18,-18 9.938,0 18,8.06 18,18"
         style="fill:#000000;fill-opacity:1;fill-rule:nonzero;stroke:none"
         id="path270" /><path
         d="m 882,1720.8 c 0,9.94 -8.062,18 -18,18 -9.937,0 -18,-8.06 -18,-18 0,-9.94 8.063,-18 18,-18 9.938,0 18,8.06 18,18"
         style="fill:#000000;fill-opacity:1;fill-rule:nonzero;stroke:none"
         id="path272" /><path
         d="m 882,280.801 c 0,9.937 -8.062,18 -18,18 -9.937,0 -18,-8.063 -18,-18 0,-9.938 8.063,-18 18,-18 9.938,0 18,8.062 18,18"
         style="fill:#000000;fill-opacity:1;fill-rule:nonzero;stroke:none"
         id="path274" /><path
         d="m 882,280.801 c 0,9.937 -8.062,18 -18,18 -9.937,0 -18,-8.063 -18,-18 0,-9.938 8.063,-18 18,-18 9.938,0 18,8.062 18,18"
         style="fill:#000000;fill-opacity:1;fill-rule:nonzero;stroke:none"
         id="path276" /><path
         d="m 882,280.801 c 0,9.937 -8.062,18 -18,18 -9.937,0 -18,-8.063 -18,-18 0,-9.938 8.063,-18 18,-18 9.938,0 18,8.062 18,18"
         style="fill:#000000;fill-opacity:1;fill-rule:nonzero;stroke:none"
         id="path278" /><path
         d="m 882,280.801 c 0,9.937 -8.062,18 -18,18 -9.937,0 -18,-8.063 -18,-18 0,-9.938 8.063,-18 18,-18 9.938,0 18,8.062 18,18"
         style="fill:#000000;fill-opacity:1;fill-rule:nonzero;stroke:none"
         id="path280" /><path
         d="m 882,1720.8 c 0,9.94 -8.062,18 -18,18 -9.937,0 -18,-8.06 -18,-18 0,-9.94 8.063,-18 18,-18 9.938,0 18,8.06 18,18"
         style="fill:#000000;fill-opacity:1;fill-rule:nonzero;stroke:none"
         id="path282" /><path
         d="m 882,1720.8 c 0,9.94 -8.062,18 -18,18 -9.937,0 -18,-8.06 -18,-18 0,-9.94 8.063,-18 18,-18 9.938,0 18,8.06 18,18"
         style="fill:#000000;fill-opacity:1;fill-rule:nonzero;stroke:none"
         id="path284" /><path
         d="m 882,1720.8 c 0,9.94 -8.062,18 -18,18 -9.937,0 -18,-8.06 -18,-18 0,-9.94 8.063,-18 18,-18 9.938,0 18,8.06 18,18"
         style="fill:#000000;fill-opacity:1;fill-rule:nonzero;stroke:none"
         id="path286" /><path
         d="m 882,1720.8 c 0,9.94 -8.062,18 -18,18 -9.937,0 -18,-8.06 -18,-18 0,-9.94 8.063,-18 18,-18 9.938,0 18,8.06 18,18"
         style="fill:#000000;fill-opacity:1;fill-rule:nonzero;stroke:none"
         id="path288" /></g></g></svg>
